<svg version="1.0" xmlns="http://www.w3.org/2000/svg"
 width="99.000000pt" height="45.000000pt" viewBox="0 0 300.000000 136.000000"
 preserveAspectRatio="xMidYMid meet">
<metadata>
Created by potrace 1.10, written by Peter Selinger 2001-2011
</metadata>
<g transform="translate(0.000000,136.000000) scale(0.100000,-0.100000)"
fill="#ffffff" stroke="none">
<path d="M1030 1245 c-19 -13 -40 -24 -45 -24 -6 -1 -40 -31 -75 -68 -59 -62
-70 -69 -134 -85 -82 -21 -136 -55 -161 -102 -22 -40 -9 -73 33 -82 52 -11 52
-11 42 -41 l-11 -28 23 27 c17 19 37 28 72 33 50 7 96 40 96 69 0 30 -21 26
-62 -13 -50 -49 -80 -56 -52 -13 10 15 28 45 41 68 12 22 34 51 47 63 23 22
28 23 56 11 70 -29 68 -116 -4 -205 -41 -49 -221 -173 -266 -181 l-32 -7 31
57 c36 65 33 74 -5 16 l-26 -40 -30 25 c-45 38 -106 30 -160 -23 -61 -57 -23
-117 66 -105 l50 6 -20 -24 c-101 -128 -195 -212 -285 -254 -78 -36 -112 -34
-139 10 -18 29 -21 46 -17 103 4 75 18 115 62 185 35 56 122 119 168 121 32 1
32 1 31 -46 0 -55 -26 -92 -58 -84 -28 7 -66 -30 -66 -66 0 -44 38 -37 96 19
76 74 92 162 34 193 -62 33 -202 -71 -264 -196 -52 -106 -57 -206 -14 -268 30
-43 36 -46 90 -46 81 0 151 34 226 109 60 60 85 92 170 223 45 69 72 58 72
-30 0 -58 26 -194 42 -227 50 -97 161 -119 281 -55 l53 28 11 -28 c13 -35 53
-48 99 -31 18 6 44 9 58 5 16 -4 32 -1 42 7 13 10 17 10 23 0 5 -7 19 -11 32
-9 21 3 24 9 26 48 6 92 15 131 36 150 27 26 36 25 47 -6 8 -21 6 -33 -10 -60
-28 -44 -24 -98 7 -102 28 -4 40 20 47 87 4 50 27 91 49 91 6 0 6 -38 2 -100
-6 -87 -5 -101 9 -106 32 -12 67 6 82 41 20 49 18 52 -14 22 -16 -15 -31 -25
-34 -22 -3 4 0 26 7 50 25 82 26 110 4 133 -24 26 -51 28 -85 5 -25 -16 -27
-16 -36 0 -11 20 -68 23 -87 5 -11 -10 -14 -10 -18 0 -8 21 -36 13 -60 -16
-20 -25 -22 -25 -23 -6 0 31 -20 44 -65 43 -67 -2 -90 -12 -90 -39 0 -21 4
-25 30 -23 17 1 42 4 58 8 17 5 27 3 27 -4 0 -6 -10 -11 -22 -11 -26 0 -80
-30 -118 -65 -33 -31 -141 -75 -199 -82 -68 -8 -123 22 -146 79 -14 36 -44
192 -49 261 -1 14 28 34 118 80 81 43 139 81 183 122 64 59 65 61 70 122 5 59
4 63 -25 92 -17 17 -39 31 -50 31 -36 0 -53 10 -39 24 74 70 149 108 199 100
30 -5 36 -3 41 17 8 31 -9 59 -36 58 -12 0 -38 -11 -57 -24z m-222 -216 c-7
-12 -18 -29 -23 -39 -35 -59 -70 -100 -86 -100 -29 0 -69 22 -69 38 0 49 97
118 173 121 15 1 16 -2 5 -20z m-234 -333 c18 -29 -33 -66 -92 -66 -26 0 -54
5 -62 10 -13 8 -12 13 6 37 37 50 123 61 148 19z m640 -272 c12 -4 16 -20 16
-56 0 -43 -2 -49 -15 -38 -17 14 -36 5 -28 -15 3 -8 0 -15 -7 -15 -12 0 -11
17 6 103 6 30 6 30 28 21z m-76 -72 c2 -15 -4 -25 -22 -34 -35 -15 -42 -5 -20
31 20 35 37 36 42 3z m228 -29 c-11 -11 -17 4 -9 23 7 18 8 18 11 1 2 -10 1
-21 -2 -24z"/>
<path d="M1567 603 c-14 -14 -6 -61 13 -78 17 -15 24 -16 45 -7 21 10 25 19
25 52 0 40 0 40 -38 40 -21 0 -42 -3 -45 -7z"/>
<path d="M1880 557 c-19 -6 -58 -34 -86 -62 l-51 -51 -11 28 c-6 18 -18 28
-31 28 -30 0 -34 -16 -16 -68 16 -45 16 -50 1 -80 -23 -44 -21 -99 3 -112 23
-12 48 -4 60 19 9 17 8 28 -3 102 -8 45 -7 46 40 88 50 44 130 76 151 59 16
-13 5 -39 -16 -36 -11 2 -16 -4 -16 -22 0 -38 36 -38 69 0 28 34 34 81 13 99
-21 17 -68 21 -107 8z m-169 -254 c-9 -16 -10 -14 -11 12 0 21 3 26 11 18 8
-8 8 -16 0 -30z"/>
<path d="M2188 508 c-20 -5 -39 -16 -42 -24 -13 -34 59 -58 105 -34 49 27 34
-8 -36 -81 -77 -80 -93 -117 -63 -147 19 -19 103 -13 253 18 129 26 153 28
305 25 91 -2 183 -7 205 -11 37 -6 39 -5 24 11 -25 26 -154 56 -269 62 -72 3
-143 0 -225 -12 -189 -27 -245 -30 -245 -13 0 8 29 41 65 73 71 65 79 78 65
105 -16 30 -85 43 -142 28z"/>
<path d="M1600 482 c-14 -2 -28 -7 -33 -11 -12 -12 9 -212 23 -221 20 -12 38
-1 49 31 8 24 7 29 -6 29 -11 0 -14 6 -9 25 12 48 18 142 10 147 -5 2 -20 2
-34 0z"/>
<path d="M1994 428 c-28 -30 -46 -65 -54 -103 -5 -25 -11 -31 -38 -33 -18 -2
-32 1 -32 7 0 6 7 11 15 11 20 0 19 29 -2 37 -17 7 -53 -28 -53 -53 0 -25 43
-45 77 -35 26 8 35 6 49 -10 24 -27 63 -24 116 10 74 47 81 78 9 42 -22 -12
-55 -21 -73 -21 l-33 1 30 24 c53 43 75 68 82 93 7 28 -3 40 -42 48 -23 4 -35
0 -51 -18z m34 -68 c-7 -10 -14 -17 -17 -15 -4 4 18 35 25 35 2 0 -1 -9 -8
-20z"/>
</g>
</svg>
